<svg width="256" height="256" viewBox="0 0 256 256" fill="none" xmlns="http://www.w3.org/2000/svg">
<g clip-path="url(#clip0_3471_23342)">
<path d="M128 256C198.692 256 256 198.692 256 128C256 57.3075 198.692 0 128 0C57.3075 0 0 57.3075 0 128C0 198.692 57.3075 256 128 256Z" fill="white"/>
<g style="mix-blend-mode:exclusion">
<path fill-rule="evenodd" clip-rule="evenodd" d="M128 252C196.483 252 252 196.483 252 128C252 59.5167 196.483 4 128 4C59.5167 4 4 59.5167 4 128C4 196.483 59.5167 252 128 252ZM256 128C256 198.692 198.692 256 128 256C57.3075 256 0 198.692 0 128C0 57.3075 57.3075 0 128 0C198.692 0 256 57.3075 256 128Z" fill="white" fill-opacity="0.18"/>
</g>
<path d="M49.9018 116.757C49.9018 156.809 84.8675 189.277 128 189.277C171.132 189.277 206.098 156.809 206.098 116.757C206.098 76.7056 171.132 44.2375 128 44.2375C84.8675 44.2375 49.9018 76.7056 49.9018 116.757Z" fill="black"/>
<path d="M55.4815 155.978C55.4815 186.787 87.9496 211.763 128.001 211.763C168.052 211.763 200.521 186.787 200.521 155.978C200.521 125.169 168.052 100.194 128.001 100.194C87.9496 100.194 55.4815 125.169 55.4815 155.978Z" fill="black"/>
<path d="M205.564 125.202L200.328 160.982H55.69L50.374 125.204L205.564 125.202Z" fill="black"/>
<path d="M62.0626 116.756C62.0626 150.139 91.5849 177.201 128.002 177.201C164.42 177.201 193.942 150.139 193.942 116.756C193.942 83.3731 164.42 56.311 128.002 56.311C91.5849 56.311 62.0626 83.3731 62.0626 116.756Z" fill="white"/>
<path d="M177.988 140.935C172.657 145.65 166.828 149.621 160.479 152.857C154.143 156.089 147.48 158.7 140.494 160.704C133.06 162.834 125.921 163.738 119.049 163.409C112.176 163.078 105.889 161.596 100.194 158.936C94.4868 156.281 89.5627 152.501 85.3934 147.595C81.2243 142.689 78.1393 136.771 76.1479 129.826C74.1565 122.882 73.6241 116.231 74.5601 109.862C75.4961 103.492 77.682 97.6744 81.1017 92.4007C84.5216 87.127 89.0679 82.539 94.7217 78.6174C100.375 74.696 106.921 71.6751 114.342 69.5471C121.763 67.4191 129.189 66.2001 136.068 66.0357C142.947 65.8714 149.392 67.1482 155.393 69.8434L144.842 88.7863C141.207 86.9136 137.395 85.7923 133.423 85.4304C129.44 85.072 124.77 85.6604 119.404 87.1993C114.934 88.4812 111.073 90.3384 107.847 92.7642C104.621 95.1899 102.066 98.0262 100.19 101.258C98.3135 104.49 97.1718 108.028 96.7615 111.861C96.3512 115.693 96.7322 119.606 97.8794 123.608C99.0268 127.608 100.819 131.228 103.173 134.218C105.526 137.21 108.362 139.582 111.679 141.325C114.982 143.072 118.653 144.123 122.674 144.47C126.695 144.819 130.941 144.351 135.424 143.066C139.906 141.78 143.794 140.161 146.836 138.268C149.877 136.374 152.243 134.664 153.931 133.122L149.889 119.027L132.843 123.915L127.784 106.274L164.978 95.609L177.979 140.95L177.988 140.935Z" fill="black"/>
</g>
<defs>
<clipPath id="clip0_3471_23342">
<rect width="256" height="256" fill="white"/>
</clipPath>
</defs>
</svg>
